<svg width="179" height="52" viewBox="0 0 179 52" fill="none" xmlns="http://www.w3.org/2000/svg">
<path d="M178.123 46.7875C178.123 49.6673 175.832 52 172.997 52H5.25548C2.42255 52 0.123047 49.6673 0.123047 46.7875V5.21933C0.123047 2.34087 2.42255 0 5.25548 0H172.996C175.832 0 178.122 2.34087 178.122 5.21933L178.123 46.7875Z" fill="black"/>
<path d="M39.2945 25.7084C39.2558 21.3542 42.8131 19.2358 42.9758 19.1372C40.9611 16.161 37.8385 15.7544 36.7411 15.7219C34.1185 15.4423 31.5745 17.312 30.2385 17.312C28.8758 17.312 26.8185 15.749 24.6011 15.7949C21.7478 15.8395 19.0785 17.5133 17.6145 20.1126C14.5931 25.4125 16.8465 33.2009 19.7411 37.4849C21.1891 39.583 22.8811 41.9256 25.0958 41.8431C27.2625 41.7526 28.0718 40.4435 30.6865 40.4435C33.2771 40.4435 34.0371 41.8431 36.2958 41.7905C38.6211 41.7526 40.0851 39.6829 41.4825 37.5659C43.1558 35.1612 43.8278 32.7929 43.8545 32.6713C43.7998 32.6524 39.3385 30.9272 39.2945 25.7084Z" fill="white"/>
<path d="M35.0278 12.9038C36.1931 11.4272 36.9905 9.41827 36.7691 7.37964C35.0825 7.45529 32.9731 8.56175 31.7585 10.0059C30.6838 11.2786 29.7238 13.3645 29.9718 15.3261C31.8665 15.4693 33.8118 14.3575 35.0278 12.9038Z" fill="white"/>
<path d="M70.6499 41.5416H67.6219L65.9633 36.2606H60.1979L58.6179 41.5416H55.6699L61.3819 23.5627H64.9099L70.6499 41.5416ZM65.4633 34.045L63.9633 29.3503C63.8046 28.8707 63.5073 27.7413 63.0686 25.9634H63.0153C62.8406 26.7281 62.5593 27.8575 62.1726 29.3503L60.6993 34.045H65.4633Z" fill="white"/>
<path d="M85.3389 34.9003C85.3389 37.1051 84.7509 38.8478 83.5749 40.1272C82.5216 41.2661 81.2136 41.8348 79.6522 41.8348C77.9669 41.8348 76.7562 41.2215 76.0189 39.9948H75.9656V46.824H73.1229V32.8454C73.1229 31.4593 73.0869 30.0367 73.0176 28.5777H75.5176L75.6762 30.6325H75.7296C76.6776 29.0843 78.1162 28.3115 80.0469 28.3115C81.5562 28.3115 82.8162 28.9154 83.8242 30.1245C84.8349 31.335 85.3389 32.9265 85.3389 34.9003ZM82.4429 35.0056C82.4429 33.7438 82.1629 32.7036 81.6002 31.8849C80.9856 31.031 80.1602 30.6041 79.1256 30.6041C78.4242 30.6041 77.7869 30.8419 77.2176 31.3107C76.6469 31.7835 76.2736 32.4009 76.0989 33.1656C76.0109 33.5223 75.9669 33.8141 75.9669 34.0437V36.2053C75.9669 37.1483 76.2522 37.944 76.8229 38.5938C77.3936 39.2437 78.1349 39.5679 79.0469 39.5679C80.1176 39.5679 80.9509 39.1491 81.5469 38.3142C82.1442 37.4779 82.4429 36.3755 82.4429 35.0056Z" fill="white"/>
<path d="M100.054 34.9003C100.054 37.1051 99.4664 38.8478 98.289 40.1272C97.237 41.2661 95.929 41.8348 94.3677 41.8348C92.6824 41.8348 91.4717 41.2215 90.7357 39.9948H90.6824V46.824H87.8397V32.8454C87.8397 31.4593 87.8037 30.0367 87.7344 28.5777H90.2344L90.393 30.6325H90.4464C91.393 29.0843 92.8317 28.3115 94.7637 28.3115C96.2717 28.3115 97.5317 28.9154 98.5424 30.1245C99.549 31.335 100.054 32.9265 100.054 34.9003ZM97.1584 35.0056C97.1584 33.7438 96.877 32.7036 96.3144 31.8849C95.6997 31.031 94.877 30.6041 93.841 30.6041C93.1384 30.6041 92.5024 30.8419 91.9317 31.3107C91.361 31.7835 90.989 32.4009 90.8144 33.1656C90.7277 33.5223 90.6824 33.8141 90.6824 34.0437V36.2053C90.6824 37.1483 90.9677 37.944 91.5357 38.5938C92.1064 39.2423 92.8477 39.5679 93.7624 39.5679C94.833 39.5679 95.6664 39.1491 96.2624 38.3142C96.8597 37.4779 97.1584 36.3755 97.1584 35.0056Z" fill="white"/>
<path d="M116.508 36.4997C116.508 38.0291 115.984 39.2733 114.932 40.2339C113.776 41.2836 112.167 41.8078 110.099 41.8078C108.189 41.8078 106.659 41.4349 105.5 40.6878L106.159 38.2871C107.407 39.0517 108.776 39.4354 110.268 39.4354C111.339 39.4354 112.172 39.1895 112.771 38.7005C113.367 38.2114 113.664 37.5549 113.664 36.7362C113.664 36.0066 113.419 35.3919 112.927 34.8934C112.437 34.3949 111.62 33.9315 110.479 33.5033C107.372 32.3293 105.82 30.6095 105.82 28.3479C105.82 26.87 106.364 25.6581 107.453 24.7151C108.539 23.7708 109.987 23.2993 111.797 23.2993C113.412 23.2993 114.753 23.5844 115.824 24.1531L115.113 26.5011C114.113 25.9499 112.983 25.6743 111.717 25.6743C110.717 25.6743 109.936 25.9243 109.376 26.4214C108.903 26.8659 108.665 27.4076 108.665 28.0494C108.665 28.76 108.936 29.3477 109.48 29.8097C109.953 30.2366 110.813 30.6986 112.061 31.1971C113.588 31.82 114.709 32.5481 115.431 33.383C116.149 34.2152 116.508 35.2568 116.508 36.4997Z" fill="white"/>
<path d="M125.907 30.7392H122.774V37.0334C122.774 38.6343 123.326 39.4341 124.433 39.4341C124.941 39.4341 125.362 39.3895 125.695 39.3003L125.774 41.4876C125.214 41.6997 124.477 41.8064 123.563 41.8064C122.441 41.8064 121.563 41.4592 120.93 40.7662C120.299 40.0717 119.982 38.9072 119.982 37.2712V30.7365H118.115V28.5749H119.982V26.2012L122.774 25.3474V28.5749H125.907V30.7392Z" fill="white"/>
<path d="M140.044 34.9528C140.044 36.9455 139.481 38.5815 138.358 39.8609C137.181 41.1781 135.618 41.8347 133.67 41.8347C131.793 41.8347 130.298 41.2038 129.184 39.942C128.069 38.6802 127.512 37.0874 127.512 35.1676C127.512 33.1587 128.085 31.5132 129.236 30.2338C130.384 28.9531 131.933 28.3127 133.881 28.3127C135.758 28.3127 137.269 28.9437 138.409 30.2068C139.5 31.4322 140.044 33.0142 140.044 34.9528ZM137.094 35.046C137.094 33.8504 136.842 32.825 136.332 31.9698C135.736 30.935 134.884 30.4189 133.78 30.4189C132.637 30.4189 131.769 30.9363 131.173 31.9698C130.662 32.8264 130.41 33.868 130.41 35.1001C130.41 36.2957 130.662 37.3211 131.173 38.1749C131.788 39.2098 132.646 39.7258 133.754 39.7258C134.84 39.7258 135.692 39.1989 136.306 38.1479C136.83 37.2765 137.094 36.2403 137.094 35.046Z" fill="white"/>
<path d="M149.285 31.1108C149.003 31.0581 148.703 31.031 148.389 31.031C147.389 31.031 146.615 31.4134 146.071 32.1794C145.598 32.8549 145.361 33.7087 145.361 34.7395V41.5417H142.519L142.546 32.6603C142.546 31.1661 142.51 29.8057 142.439 28.579H144.915L145.019 31.0594H145.098C145.398 30.2069 145.871 29.5207 146.519 29.0059C147.153 28.5425 147.837 28.3115 148.574 28.3115C148.837 28.3115 149.074 28.3304 149.285 28.3642V31.1108Z" fill="white"/>
<path d="M161.998 34.4462C161.998 34.9623 161.964 35.3973 161.894 35.7526H153.366C153.399 37.0334 153.811 38.0128 154.603 38.6883C155.322 39.2922 156.251 39.5948 157.392 39.5948C158.655 39.5948 159.807 39.3908 160.843 38.9815L161.288 40.9809C160.078 41.5159 158.648 41.782 156.999 41.782C155.015 41.782 153.458 41.1903 152.324 40.0082C151.194 38.8261 150.627 37.2387 150.627 35.2474C150.627 33.2925 151.154 31.6646 152.208 30.3663C153.312 28.9802 154.804 28.2871 156.682 28.2871C158.526 28.2871 159.922 28.9802 160.87 30.3663C161.62 31.4673 161.998 32.8291 161.998 34.4462ZM159.287 33.6991C159.306 32.8453 159.12 32.1077 158.735 31.4849C158.243 30.6837 157.487 30.2839 156.47 30.2839C155.54 30.2839 154.784 30.6743 154.207 31.4579C153.734 32.0807 153.452 32.8278 153.366 33.6978H159.287V33.6991Z" fill="white"/>
<path d="M64.5228 12.5024C64.5228 14.0925 64.0521 15.2895 63.1121 16.0933C62.2414 16.835 61.0041 17.2065 59.4014 17.2065C58.6068 17.2065 57.9268 17.1714 57.3574 17.1011V8.41298C58.1001 8.29139 58.9001 8.22925 59.7641 8.22925C61.2908 8.22925 62.4414 8.56564 63.2174 9.23843C64.0868 9.99903 64.5228 11.0866 64.5228 12.5024ZM63.0494 12.5416C63.0494 11.5108 62.7801 10.7205 62.2414 10.1693C61.7028 9.61941 60.9161 9.34381 59.8801 9.34381C59.4401 9.34381 59.0654 9.37353 58.7548 9.43567V16.0406C58.9268 16.0676 59.2414 16.0798 59.6988 16.0798C60.7681 16.0798 61.5934 15.7785 62.1748 15.176C62.7561 14.5735 63.0494 13.6953 63.0494 12.5416Z" fill="white"/>
<path d="M72.3357 13.8911C72.3357 14.8706 72.0597 15.6731 71.5077 16.3026C70.929 16.9498 70.1624 17.2727 69.205 17.2727C68.2824 17.2727 67.5477 16.9633 66.9997 16.3418C66.453 15.7217 66.1797 14.9395 66.1797 13.9965C66.1797 13.0103 66.461 12.2011 67.0264 11.5729C67.5917 10.9447 68.3517 10.6299 69.309 10.6299C70.2317 10.6299 70.973 10.9393 71.5344 11.5594C72.0677 12.1619 72.3357 12.9401 72.3357 13.8911ZM70.8864 13.9371C70.8864 13.3494 70.761 12.8455 70.5117 12.4253C70.2184 11.9174 69.801 11.6634 69.2584 11.6634C68.697 11.6634 68.2704 11.9174 67.977 12.4253C67.7264 12.8455 67.6024 13.3575 67.6024 13.9628C67.6024 14.5504 67.7277 15.0543 67.977 15.4745C68.2797 15.9825 68.701 16.2364 69.245 16.2364C69.7784 16.2364 70.197 15.9784 70.4984 15.461C70.757 15.0327 70.8864 14.5248 70.8864 13.9371Z" fill="white"/>
<path d="M82.8098 10.7598L80.8431 17.1283H79.5631L78.7485 14.3628C78.5418 13.6725 78.3738 12.9862 78.2431 12.3053H78.2178C78.0965 13.0051 77.9285 13.69 77.7125 14.3628L76.8471 17.1283H75.5525L73.7031 10.7598H75.1391L75.8498 13.7873C76.0218 14.5033 76.1631 15.1856 76.2765 15.8313H76.3018C76.4058 15.2991 76.5778 14.6209 76.8205 13.8008L77.7125 10.7611H78.8511L79.7058 13.736C79.9125 14.4615 80.0805 15.1599 80.2098 15.8327H80.2485C80.3431 15.1775 80.4858 14.479 80.6751 13.736L81.4378 10.7611H82.8098V10.7598Z" fill="white"/>
<path d="M90.0542 17.128H88.6569V13.4804C88.6569 12.3563 88.2356 11.7943 87.3902 11.7943C86.9756 11.7943 86.6409 11.9483 86.3809 12.2577C86.1236 12.5671 85.9929 12.9319 85.9929 13.3493V17.1267H84.5956V12.5793C84.5956 12.0199 84.5783 11.4134 84.5449 10.7568H85.7729L85.8383 11.7525H85.8769C86.0396 11.4431 86.2823 11.1877 86.6009 10.9837C86.9796 10.746 87.4036 10.6257 87.8676 10.6257C88.4542 10.6257 88.9422 10.8176 89.3302 11.2026C89.8129 11.6741 90.0542 12.378 90.0542 13.3128V17.128Z" fill="white"/>
<path d="M93.9077 17.1281H92.5117V7.8374H93.9077V17.1281Z" fill="white"/>
<path d="M102.133 13.8911C102.133 14.8706 101.857 15.6731 101.305 16.3026C100.726 16.9498 99.9579 17.2727 99.0019 17.2727C98.0779 17.2727 97.3432 16.9633 96.7966 16.3418C96.2499 15.7217 95.9766 14.9395 95.9766 13.9965C95.9766 13.0103 96.2579 12.2011 96.8232 11.5729C97.3886 10.9447 98.1486 10.6299 99.1046 10.6299C100.029 10.6299 100.769 10.9393 101.331 11.5594C101.865 12.1619 102.133 12.9401 102.133 13.8911ZM100.682 13.9371C100.682 13.3494 100.557 12.8455 100.307 12.4253C100.015 11.9174 99.5966 11.6634 99.0552 11.6634C98.4926 11.6634 98.0659 11.9174 97.7739 12.4253C97.5232 12.8455 97.3992 13.3575 97.3992 13.9628C97.3992 14.5504 97.5246 15.0543 97.7739 15.4745C98.0766 15.9825 98.4979 16.2364 99.0419 16.2364C99.5752 16.2364 99.9926 15.9784 100.294 15.461C100.554 15.0327 100.682 14.5248 100.682 13.9371Z" fill="white"/>
<path d="M108.896 17.1281H107.642L107.538 16.3945H107.499C107.07 16.9795 106.458 17.2727 105.663 17.2727C105.07 17.2727 104.59 17.0795 104.228 16.6958C103.9 16.3472 103.736 15.9136 103.736 15.3988C103.736 14.6207 104.056 14.0276 104.7 13.6169C105.343 13.2062 106.247 13.0049 107.411 13.0144V12.8955C107.411 12.0565 106.976 11.6377 106.106 11.6377C105.486 11.6377 104.939 11.7958 104.467 12.1092L104.183 11.1797C104.767 10.8136 105.488 10.6299 106.339 10.6299C107.982 10.6299 108.806 11.508 108.806 13.2643V15.6096C108.806 16.2459 108.836 16.7525 108.896 17.1281ZM107.446 14.9395V13.9573C105.904 13.9303 105.134 14.3586 105.134 15.2408C105.134 15.5731 105.222 15.8217 105.402 15.9879C105.582 16.154 105.811 16.2364 106.084 16.2364C106.391 16.2364 106.678 16.1378 106.939 15.9419C107.202 15.7447 107.363 15.4948 107.423 15.1881C107.438 15.1192 107.446 15.0354 107.446 14.9395Z" fill="white"/>
<path d="M116.836 17.1281H115.596L115.531 16.1054H115.492C115.096 16.8836 114.421 17.2726 113.473 17.2726C112.716 17.2726 112.085 16.9714 111.585 16.3688C111.085 15.7663 110.836 14.9841 110.836 14.0235C110.836 12.9927 111.107 12.1578 111.651 11.5202C112.177 10.9257 112.823 10.6285 113.591 10.6285C114.435 10.6285 115.025 10.9163 115.361 11.4932H115.388V7.8374H116.787V15.4124C116.787 16.0324 116.803 16.6039 116.836 17.1281ZM115.388 14.4423V13.3805C115.388 13.1967 115.375 13.0481 115.349 12.9347C115.271 12.5942 115.101 12.3078 114.844 12.0768C114.584 11.8458 114.271 11.7296 113.909 11.7296C113.388 11.7296 112.98 11.939 112.68 12.3591C112.383 12.7793 112.232 13.3156 112.232 13.9709C112.232 14.6004 112.375 15.1111 112.661 15.5042C112.964 15.923 113.372 16.1324 113.883 16.1324C114.341 16.1324 114.708 15.9581 114.987 15.6082C115.256 15.2854 115.388 14.8963 115.388 14.4423Z" fill="white"/>
<path d="M128.787 13.8911C128.787 14.8706 128.511 15.6731 127.959 16.3026C127.38 16.9498 126.615 17.2727 125.656 17.2727C124.735 17.2727 124 16.9633 123.451 16.3418C122.904 15.7217 122.631 14.9395 122.631 13.9965C122.631 13.0103 122.912 12.2011 123.478 11.5729C124.043 10.9447 124.803 10.6299 125.762 10.6299C126.683 10.6299 127.426 10.9393 127.986 11.5594C128.519 12.1619 128.787 12.9401 128.787 13.8911ZM127.339 13.9371C127.339 13.3494 127.214 12.8455 126.964 12.4253C126.67 11.9174 126.254 11.6634 125.71 11.6634C125.15 11.6634 124.723 11.9174 124.428 12.4253C124.178 12.8455 124.054 13.3575 124.054 13.9628C124.054 14.5504 124.179 15.0543 124.428 15.4745C124.731 15.9825 125.152 16.2364 125.696 16.2364C126.23 16.2364 126.65 15.9784 126.951 15.461C127.208 15.0327 127.339 14.5248 127.339 13.9371Z" fill="white"/>
<path d="M136.301 17.128H134.905V13.4804C134.905 12.3563 134.484 11.7943 133.637 11.7943C133.222 11.7943 132.888 11.9483 132.629 12.2577C132.37 12.5671 132.241 12.9319 132.241 13.3493V17.1267H130.842V12.5793C130.842 12.0199 130.826 11.4134 130.793 10.7568H132.02L132.085 11.7525H132.124C132.288 11.4431 132.53 11.1877 132.848 10.9837C133.228 10.746 133.65 10.6257 134.116 10.6257C134.701 10.6257 135.189 10.8176 135.577 11.2026C136.061 11.6741 136.301 12.378 136.301 13.3128V17.128Z" fill="white"/>
<path d="M145.705 11.8202H144.166V14.9139C144.166 15.7002 144.44 16.0933 144.981 16.0933C145.232 16.0933 145.44 16.0717 145.604 16.0271L145.64 17.1011C145.364 17.2065 145.001 17.2592 144.554 17.2592C144.002 17.2592 143.573 17.089 143.262 16.7485C142.95 16.4081 142.796 15.8353 142.796 15.0314V11.8202H141.877V10.7596H142.796V9.59239L144.165 9.17358V10.7583H145.704V11.8202H145.705Z" fill="white"/>
<path d="M153.101 17.1281H151.703V13.5075C151.703 12.3659 151.281 11.7944 150.437 11.7944C149.789 11.7944 149.347 12.1254 149.104 12.7874C149.063 12.9265 149.039 13.0968 149.039 13.2967V17.1267H147.643V7.8374H149.039V11.6755H149.065C149.505 10.9771 150.136 10.6285 150.953 10.6285C151.532 10.6285 152.011 10.8204 152.391 11.2054C152.864 11.685 153.101 12.3983 153.101 13.3413V17.1281Z" fill="white"/>
<path d="M160.733 13.6425C160.733 13.8965 160.714 14.11 160.681 14.2842H156.49C156.509 14.9138 156.709 15.3934 157.097 15.7257C157.451 16.0229 157.909 16.1716 158.469 16.1716C159.089 16.1716 159.654 16.0716 160.163 15.8703L160.382 16.8538C159.786 17.1159 159.085 17.2469 158.273 17.2469C157.299 17.2469 156.533 16.9565 155.978 16.3756C155.421 15.7946 155.145 15.0151 155.145 14.037C155.145 13.0765 155.402 12.2767 155.921 11.639C156.462 10.9581 157.194 10.6177 158.118 10.6177C159.022 10.6177 159.709 10.9581 160.173 11.639C160.547 12.1794 160.733 12.8481 160.733 13.6425ZM159.399 13.2764C159.41 12.8562 159.318 12.4942 159.129 12.1889C158.886 11.7957 158.517 11.5985 158.017 11.5985C157.561 11.5985 157.189 11.7903 156.905 12.1754C156.673 12.482 156.535 12.8481 156.49 13.2764H159.399Z" fill="white"/>
</svg>
