<svg width="180" height="52" viewBox="0 0 180 52" fill="none" xmlns="http://www.w3.org/2000/svg">
<path d="M173.218 52H6.78055C3.12059 52 0.123047 49.0734 0.123047 45.5V6.5C0.123047 2.92663 3.12059 2.74817e-06 6.78055 2.74817e-06H173.218C176.878 2.74817e-06 179.876 2.92663 179.876 6.5V45.5C179.876 49.0734 176.878 52 173.218 52Z" fill="black"/>
<path d="M63.2591 13.3169C63.2591 14.4024 62.9263 15.2718 62.2705 15.9202C61.5165 16.6888 60.5346 17.0756 59.3312 17.0756C58.1811 17.0756 57.1991 16.6823 56.3936 15.9072C55.5864 15.1207 55.1836 14.1554 55.1836 13.0001C55.1836 11.8447 55.5864 10.8794 56.3936 10.0994C57.1991 9.31781 58.1811 8.92456 59.3312 8.92456C59.9038 8.92456 60.4497 9.03994 60.9706 9.25444C61.4899 9.47056 61.9127 9.76306 62.2189 10.1238L61.5232 10.8096C60.9889 10.1937 60.2616 9.88981 59.3312 9.88981C58.4924 9.88981 57.765 10.1758 57.1476 10.7527C56.5367 11.3312 56.2305 12.0803 56.2305 13.0001C56.2305 13.9198 56.5367 14.6754 57.1476 15.2539C57.765 15.8243 58.4924 16.1168 59.3312 16.1168C60.2217 16.1168 60.9706 15.8243 61.5615 15.2474C61.9509 14.8656 62.1723 14.3391 62.2306 13.6663H59.3312V12.7271H63.1992C63.2458 12.9302 63.2591 13.1268 63.2591 13.3169Z" fill="white" stroke="white" stroke-width="0.16" stroke-miterlimit="10"/>
<path d="M69.3963 10.0604H65.763V12.5304H69.0385V13.4696H65.763V15.9396H69.3963V16.8968H64.7344V9.10327H69.3963V10.0604Z" fill="white" stroke="white" stroke-width="0.16" stroke-miterlimit="10"/>
<path d="M73.7259 16.8968H72.6973V10.0604H70.4688V9.10327H75.9562V10.0604H73.7259V16.8968Z" fill="white" stroke="white" stroke-width="0.16" stroke-miterlimit="10"/>
<path d="M79.9277 16.8968V9.10327H80.9547V16.8968H79.9277Z" fill="white" stroke="white" stroke-width="0.16" stroke-miterlimit="10"/>
<path d="M85.5072 16.8968H84.4869V10.0604H82.25V9.10327H87.7441V10.0604H85.5072V16.8968Z" fill="white" stroke="white" stroke-width="0.16" stroke-miterlimit="10"/>
<path d="M98.133 15.8942C97.3457 16.6823 96.3704 17.0756 95.207 17.0756C94.0369 17.0756 93.0616 16.6823 92.2744 15.8942C91.4888 15.1077 91.0977 14.1424 91.0977 13.0001C91.0977 11.8577 91.4888 10.8924 92.2744 10.1059C93.0616 9.31781 94.0369 8.92456 95.207 8.92456C96.3637 8.92456 97.3391 9.31781 98.1263 10.1124C98.9186 10.9054 99.3097 11.8642 99.3097 13.0001C99.3097 14.1424 98.9186 15.1077 98.133 15.8942ZM93.035 15.2409C93.6275 15.8243 94.3482 16.1168 95.207 16.1168C96.0592 16.1168 96.7865 15.8243 97.3724 15.2409C97.9632 14.6576 98.2628 13.9084 98.2628 13.0001C98.2628 12.0917 97.9632 11.3426 97.3724 10.7592C96.7865 10.1758 96.0592 9.88331 95.207 9.88331C94.3482 9.88331 93.6275 10.1758 93.035 10.7592C92.4441 11.3426 92.1446 12.0917 92.1446 13.0001C92.1446 13.9084 92.4441 14.6576 93.035 15.2409Z" fill="white" stroke="white" stroke-width="0.16" stroke-miterlimit="10"/>
<path d="M100.752 16.8968V9.10327H102L105.882 15.1645H105.926L105.882 13.6663V9.10327H106.908V16.8968H105.837L101.772 10.5365H101.727L101.772 12.0413V16.8968H100.752Z" fill="white" stroke="white" stroke-width="0.16" stroke-miterlimit="10"/>
<path d="M90.8446 28.2783C87.7172 28.2783 85.1624 30.602 85.1624 33.8082C85.1624 36.9883 87.7172 39.3364 90.8446 39.3364C93.9786 39.3364 96.5334 36.9883 96.5334 33.8082C96.5334 30.602 93.9786 28.2783 90.8446 28.2783ZM90.8446 37.1589C89.1286 37.1589 87.6523 35.776 87.6523 33.8082C87.6523 31.8143 89.1286 30.4558 90.8446 30.4558C92.5605 30.4558 94.0435 31.8143 94.0435 33.8082C94.0435 35.776 92.5605 37.1589 90.8446 37.1589ZM78.4466 28.2783C75.3126 28.2783 72.7645 30.602 72.7645 33.8082C72.7645 36.9883 75.3126 39.3364 78.4466 39.3364C81.579 39.3364 84.1288 36.9883 84.1288 33.8082C84.1288 30.602 81.579 28.2783 78.4466 28.2783ZM78.4466 37.1589C76.729 37.1589 75.2477 35.776 75.2477 33.8082C75.2477 31.8143 76.729 30.4558 78.4466 30.4558C80.1626 30.4558 81.6389 31.8143 81.6389 33.8082C81.6389 35.776 80.1626 37.1589 78.4466 37.1589ZM63.6936 29.9732V32.3229H69.4407C69.2726 33.6359 68.8232 34.6012 68.1342 35.2739C67.2953 36.0864 65.9888 36.9883 63.6936 36.9883C60.1568 36.9883 57.3873 34.2014 57.3873 30.7483C57.3873 27.2952 60.1568 24.5083 63.6936 24.5083C65.606 24.5083 66.9974 25.2379 68.0243 26.1837L69.7203 24.5278C68.284 23.1888 66.3733 22.1602 63.6936 22.1602C58.8436 22.1602 54.7676 26.013 54.7676 30.7483C54.7676 35.4835 58.8436 39.3364 63.6936 39.3364C66.315 39.3364 68.284 38.4979 69.8318 36.9249C71.418 35.3763 71.9123 33.1988 71.9123 31.4405C71.9123 30.8945 71.8657 30.3924 71.7825 29.9732H63.6936ZM124.021 31.7948C123.553 30.5582 122.11 28.2783 119.171 28.2783C116.258 28.2783 113.833 30.5192 113.833 33.8082C113.833 36.9054 116.233 39.3364 119.45 39.3364C122.052 39.3364 123.553 37.7878 124.17 36.8859L122.24 35.6298C121.596 36.5495 120.718 37.1589 119.45 37.1589C118.19 37.1589 117.286 36.595 116.707 35.4835L124.282 32.4237L124.021 31.7948ZM116.298 33.6359C116.233 31.5039 117.994 30.4119 119.255 30.4119C120.244 30.4119 121.083 30.8945 121.363 31.5852L116.298 33.6359ZM110.141 39H112.631V22.75H110.141V39ZM106.064 29.51H105.98C105.421 28.8633 104.354 28.2783 103.003 28.2783C100.167 28.2783 97.5736 30.7093 97.5736 33.826C97.5736 36.9249 100.167 39.3364 103.003 39.3364C104.354 39.3364 105.421 38.7465 105.98 38.0803H106.064V38.8733C106.064 40.9874 104.907 42.1233 103.041 42.1233C101.52 42.1233 100.576 41.0508 100.187 40.1489L98.0214 41.0313C98.6455 42.497 100.298 44.3008 103.041 44.3008C105.96 44.3008 108.424 42.6238 108.424 38.5434V28.6147H106.064V29.51ZM103.216 37.1589C101.5 37.1589 100.064 35.7565 100.064 33.826C100.064 31.8777 101.5 30.4558 103.216 30.4558C104.907 30.4558 106.24 31.8777 106.24 33.826C106.24 35.7565 104.907 37.1589 103.216 37.1589ZM135.678 22.75H129.723V39H132.206V32.8429H135.678C138.436 32.8429 141.14 30.8945 141.14 27.7957C141.14 24.6984 138.429 22.75 135.678 22.75ZM135.743 30.5825H132.206V25.0104H135.743C137.597 25.0104 138.655 26.5135 138.655 27.7957C138.655 29.0534 137.597 30.5825 135.743 30.5825ZM151.093 28.2474C149.299 28.2474 147.433 29.0209 146.666 30.7353L148.87 31.6372C149.344 30.7353 150.216 30.4428 151.138 30.4428C152.426 30.4428 153.733 31.1984 153.753 32.5325V32.7032C153.304 32.4497 152.342 32.0743 151.158 32.0743C148.785 32.0743 146.366 33.3499 146.366 35.7305C146.366 37.908 148.31 39.3104 150.496 39.3104C152.167 39.3104 153.089 38.5743 153.668 37.7179H153.753V38.974H156.151V32.7405C156.151 29.8594 153.948 28.2474 151.093 28.2474ZM150.794 37.1524C149.981 37.1524 148.85 36.7592 148.85 35.776C148.85 34.5183 150.261 34.0357 151.483 34.0357C152.576 34.0357 153.089 34.2713 153.753 34.5817C153.558 36.0864 152.232 37.1524 150.794 37.1524ZM164.889 28.6033L162.035 35.6477H161.95L158.999 28.6033H156.321L160.755 38.4475L158.225 43.9254H160.82L167.652 28.6033H164.889ZM142.505 39H144.995V22.75H142.505V39Z" fill="white"/>
<path d="M14.0179 9.80044C13.6267 10.2002 13.4004 10.8226 13.4004 11.6286V40.3781C13.4004 41.1841 13.6267 41.8064 14.0179 42.2062L14.1144 42.2939L30.615 26.1902V25.8099L14.1144 9.7062L14.0179 9.80044Z" fill="url(#paint0_linear_5616_11581)"/>
<path d="M36.1093 31.5608L30.6152 26.1902V25.8099L36.116 20.4393L36.2392 20.5092L42.7535 24.128C44.6126 25.155 44.6126 26.845 42.7535 27.8785L36.2392 31.4909L36.1093 31.5608Z" fill="url(#paint1_linear_5616_11581)"/>
<path d="M36.2387 31.491L30.6147 26.0001L14.0176 42.2062C14.6351 42.84 15.642 42.9163 16.7871 42.2826L36.2387 31.491Z" fill="url(#paint2_linear_5616_11581)"/>
<path d="M36.2387 20.5091L16.7871 9.71751C15.642 9.09025 14.6351 9.16663 14.0176 9.80038L30.6147 26L36.2387 20.5091Z" fill="url(#paint3_linear_5616_11581)"/>
<defs>
<linearGradient id="paint0_linear_5616_11581" x1="29.15" y1="40.6775" x2="7.3391" y2="18.3381" gradientUnits="userSpaceOnUse">
<stop stop-color="#00A0FF"/>
<stop offset="0.0066" stop-color="#00A1FF"/>
<stop offset="0.2601" stop-color="#00BEFF"/>
<stop offset="0.5122" stop-color="#00D2FF"/>
<stop offset="0.7604" stop-color="#00DFFF"/>
<stop offset="1" stop-color="#00E3FF"/>
</linearGradient>
<linearGradient id="paint1_linear_5616_11581" x1="45.1744" y1="25.9982" x2="12.9562" y2="25.9982" gradientUnits="userSpaceOnUse">
<stop stop-color="#FFE000"/>
<stop offset="0.4087" stop-color="#FFBD00"/>
<stop offset="0.7754" stop-color="#FFA500"/>
<stop offset="1" stop-color="#FF9C00"/>
</linearGradient>
<linearGradient id="paint2_linear_5616_11581" x1="33.1805" y1="23.0152" x2="3.60322" y2="-7.27884" gradientUnits="userSpaceOnUse">
<stop stop-color="#FF3A44"/>
<stop offset="1" stop-color="#C31162"/>
</linearGradient>
<linearGradient id="paint3_linear_5616_11581" x1="9.83973" y1="51.7709" x2="23.0473" y2="38.2434" gradientUnits="userSpaceOnUse">
<stop stop-color="#32A071"/>
<stop offset="0.0685" stop-color="#2DA771"/>
<stop offset="0.4762" stop-color="#15CF74"/>
<stop offset="0.8009" stop-color="#06E775"/>
<stop offset="1" stop-color="#00F076"/>
</linearGradient>
</defs>
</svg>
